<svg width="32" height="32" viewBox="0 0 32 32" fill="none" xmlns="http://www.w3.org/2000/svg">
<g clip-path="url(#clip0_12438_15353)">
<path d="M23.5512 16.3473L23.8101 15.6916C25.2307 12.0928 23.5695 8.06551 20.1038 6.69734C16.6381 5.32918 12.6738 7.13572 11.2531 10.7344L10.9942 11.3902C10.6863 12.1734 10.1603 12.8519 9.4785 13.3452L7.81449 14.5428C6.29578 15.6366 6.22769 17.9115 7.68095 19.0206C11.4776 21.9202 16.0053 23.7076 20.7588 24.1834C22.5778 24.366 24.082 22.6581 23.7196 20.8228L23.3224 18.8114C23.161 17.9854 23.24 17.1304 23.5499 16.3479L23.5512 16.3473Z" fill="#FFD600"/>
<path d="M9.67578 20.8574C9.64317 22.7238 10.827 24.5372 12.7599 25.3002C14.6927 26.0633 16.796 25.5475 18.0471 24.1622" stroke="#FFD600" stroke-width="0.625" stroke-linecap="round"/>
</g>
<defs>
<clipPath id="clip0_12438_15353">
<rect width="24" height="24" fill="white" transform="translate(9.67651 0.431641) rotate(21.5427)"/>
</clipPath>
</defs>
</svg>
