<svg width="29" height="28" viewBox="0 0 29 28" fill="none" xmlns="http://www.w3.org/2000/svg">
<g clip-path="url(#clip0_12384_30421)">
<path d="M21.4764 16.269L21.7972 15.7768C23.5575 13.0756 22.6386 9.35739 19.7482 7.47374C16.8578 5.59009 13.0852 6.25076 11.3248 8.95194L11.0041 9.44414C10.6221 10.0323 10.0608 10.4863 9.38665 10.7524L7.74228 11.3966C6.24141 11.9851 5.86613 13.8702 7.00405 15.1071C9.97654 18.3403 13.7526 20.8012 17.9108 22.215C19.5019 22.7566 21.0749 21.6521 21.0068 20.0421L20.9321 18.2776C20.903 17.5534 21.0915 16.8563 21.4752 16.2692L21.4764 16.269Z" stroke="#A4A2A2"/>
<path d="M8.52246 17.0684C8.23524 18.6199 9.0363 20.3873 10.6483 21.4378C12.2602 22.4883 14.2006 22.5075 15.504 21.6182" stroke="#A4A2A2" stroke-linecap="round"/>
</g>
<defs>
<clipPath id="clip0_12384_30421">
<rect width="20" height="20" fill="white" transform="translate(11.582 0.162109) rotate(33.0923)"/>
</clipPath>
</defs>
</svg>
